<svg xmlns="http://www.w3.org/2000/svg" class="editor-view__logo-preview" data-v-04588dbe="" data-v-0a059b40="" width="167.97998046875" height="55.91400146484375" viewBox="0 0 167.97998046875 55.91400146484375"><svg id="mark" viewBox="0 0 100 100" width="54" height="54" x="0" y="0.957000732421875" data-v-04588dbe="" style="fill: rgb(0, 0, 0);"><rect x="0" y="0" width="100%" height="100%" fill="none" data-v-04588dbe=""></rect><g data-v-04588dbe=""><path xmlns="http://www.w3.org/2000/svg" d="M80.644,87.982l16.592-41.483c0.054-0.128,0.088-0.26,0.108-0.394c0.006-0.039,0.007-0.077,0.011-0.116  c0.007-0.087,0.008-0.174,0.002-0.26c-0.003-0.046-0.007-0.091-0.014-0.137c-0.014-0.089-0.036-0.176-0.063-0.262  c-0.012-0.034-0.019-0.069-0.031-0.103c-0.047-0.118-0.106-0.229-0.178-0.335c-0.004-0.006-0.006-0.012-0.01-0.018L67.999,3.358  c-0.01-0.013-0.003-0.026-0.013-0.04L68,3.315V4c0,0-0.033,0-0.037,0c-0.403-1-1.094-1.124-1.752-0.976  c0,0.004-0.004-0.012-0.007-0.012C66.201,3.016,66.194,3,66.194,3H66.19h-0.003h-0.003h-0.004h-0.003c0,0-0.004,0-0.007,0  s-0.003-0.151-0.007-0.151L20.495,15.227c-0.025,0.007-0.046-0.019-0.071-0.011c-0.087,0.028-0.172,0.041-0.253,0.083  c-0.054,0.027-0.102,0.053-0.152,0.085c-0.051,0.033-0.101,0.061-0.147,0.099c-0.044,0.036-0.084,0.073-0.124,0.113  c-0.048,0.048-0.093,0.098-0.136,0.152c-0.03,0.039-0.059,0.076-0.085,0.117c-0.046,0.07-0.084,0.145-0.12,0.223  c-0.011,0.023-0.027,0.042-0.036,0.066L2.911,57.664C2.891,57.715,3,57.768,3,57.82v0.002c0,0.186,0,0.375,0,0.562  c0,0.004,0,0.004,0,0.008c0,0,0,0,0,0.002c0,0,0,0,0,0.004v0.004v0.002c0,0.074-0.002,0.15,0.012,0.223  C3.015,58.631,3,58.631,3,58.633c0,0.004,0,0.004,0,0.008c0,0,0,0,0,0.002c0,0,0,0,0,0.004v0.004c0,0,0,0,0,0.002v0.004  c0,0.191-0.046,0.377,0.06,0.545c0-0.002-0.03,0.004-0.03,0.004c0,0.004-0.03,0.004-0.03,0.004c0,0.002,0,0.002,0,0.002  l-0.045,0.004c0.03,0.047,0.036,0.09,0.068,0.133l29.049,37.359c0.002,0.004,0,0.006,0.002,0.01c0.002,0.002,0,0.004,0.002,0.008  c0.006,0.008,0.014,0.014,0.021,0.021c0.024,0.029,0.052,0.051,0.078,0.078c0.027,0.029,0.053,0.057,0.082,0.082  c0.03,0.027,0.055,0.062,0.086,0.088c0.026,0.02,0.057,0.033,0.084,0.053c0.04,0.027,0.081,0.053,0.123,0.076  c0.005,0.004,0.01,0.008,0.016,0.01c0.087,0.051,0.176,0.09,0.269,0.123c0.042,0.014,0.082,0.031,0.125,0.043  c0.021,0.006,0.041,0.018,0.062,0.021c0.123,0.027,0.249,0.043,0.375,0.043c0.099,0,0.202-0.012,0.304-0.027l45.669-8.303  c0.057-0.01,0.108-0.021,0.163-0.037C79.547,88.992,79.562,89,79.575,89c0.004,0,0.004,0,0.004,0c0.021,0,0.039-0.027,0.06-0.035  c0.041-0.014,0.08-0.034,0.12-0.052c0.021-0.01,0.044-0.019,0.064-0.03c0.017-0.01,0.026-0.015,0.033-0.017  c0.014-0.008,0.023-0.021,0.037-0.028c0.14-0.078,0.269-0.174,0.38-0.285c0.014-0.016,0.024-0.034,0.038-0.048  c0.109-0.119,0.201-0.252,0.271-0.398c0.006-0.01,0.016-0.018,0.021-0.029c0.004-0.008,0.008-0.017,0.011-0.026  c0.002-0.004,0.003-0.006,0.005-0.01C80.627,88.021,80.635,88.002,80.644,87.982z M77.611,84.461L48.805,66.453l32.407-25.202  L77.611,84.461z M46.817,63.709L35.863,23.542l43.818,14.608L46.817,63.709z M84.668,40.542l8.926,5.952l-11.902,29.75  L84.668,40.542z M89.128,39.446L84.53,36.38l-6.129-12.257L89.128,39.446z M79.876,34.645L37.807,20.622L65.854,6.599L79.876,34.645  z M33.268,19.107l-6.485-2.162l23.781-6.487L33.268,19.107z M21.92,18.895l8.67,2.891L10.357,47.798L21.92,18.895z M32.652,24.649  l10.845,39.757L7.351,57.178L32.652,24.649z M43.472,67.857L32.969,92.363L8.462,60.855L43.472,67.857z M46.631,69.09l27.826,17.393  l-38.263,6.959L46.631,69.09z"></path></g></svg><svg id="name" viewBox="0 0 97.9800033569336 33.30400085449219" width="97.98000000000002" height="33.30399971344999" x="70" y="4" data-v-04588dbe="" style="fill: rgb(0, 0, 0);"><rect x="0" y="0" width="100%" height="100%" fill="none" data-v-04588dbe=""></rect><g data-v-04588dbe=""><path xmlns="http://www.w3.org/2000/svg" d="M15.64 33.30L15.64 33.30Q10.76 33.30 7.27 31.21Q3.77 29.12 1.89 25.37Q0 21.62 0 16.70L0 16.70Q0 11.78 1.89 8.00Q3.77 4.23 7.27 2.12Q10.76 0 15.64 0L15.64 0Q21.44 0 25.14 2.88Q28.84 5.75 29.76 10.95L29.76 10.95L23.28 10.95Q22.68 8.33 20.72 6.83Q18.77 5.34 15.55 5.34L15.55 5.34Q11.09 5.34 8.56 8.37Q6.03 11.41 6.03 16.70L6.03 16.70Q6.03 21.99 8.56 25.00Q11.09 28.01 15.55 28.01L15.55 28.01Q18.77 28.01 20.72 26.61Q22.68 25.21 23.28 22.72L23.28 22.72L29.76 22.72Q28.84 27.69 25.14 30.50Q21.44 33.30 15.64 33.30ZM40.85 32.75L34.96 32.75L34.96 0.55L46.78 0.55Q50.65 0.55 53.15 1.86Q55.66 3.17 56.90 5.41Q58.14 7.64 58.14 10.35L58.14 10.35Q58.14 13.29 56.60 15.73Q55.06 18.17 51.80 19.27L51.80 19.27L58.47 32.75L51.70 32.75L45.72 20.06L40.85 20.06L40.85 32.75ZM40.85 5.47L40.85 15.73L46.41 15.73Q49.36 15.73 50.74 14.31Q52.12 12.88 52.12 10.53L52.12 10.53Q52.12 8.23 50.76 6.85Q49.40 5.47 46.37 5.47L46.37 5.47L40.85 5.47ZM69.51 32.75L63.62 32.75L63.62 0.55L70.61 0.55L80.87 20.98L90.99 0.55L97.98 0.55L97.98 32.75L92.09 32.75L92.09 10.53L83.12 28.15L78.48 28.15L69.51 10.53L69.51 32.75Z"></path></g></svg><svg id="slogan" viewBox="0 0 30.654296875 14.609375" width="30.654296875" height="14.609375" x="70" y="41.30400085449219" data-v-04588dbe="" style="fill: rgb(0, 0, 0);"><rect x="0" y="0" width="100%" height="100%" fill="none" data-v-04588dbe=""></rect><g data-v-04588dbe=""><path xmlns="http://www.w3.org/2000/svg" d="M10.21 14.41L9.23 11.48L4.09 11.48L3.12 14.41L0 14.41L5.29 0.20L8.01 0.20L13.33 14.41L10.21 14.41ZM6.65 3.79L4.88 9.11L8.44 9.11L6.65 3.79ZM22.69 9.68L25.62 9.68Q25.45 11.97 23.92 13.29Q22.39 14.61 19.89 14.61L19.89 14.61Q17.16 14.61 15.59 12.77Q14.02 10.93 14.02 7.71L14.02 7.71L14.02 6.85Q14.02 4.79 14.75 3.23Q15.47 1.67 16.81 0.83Q18.15 0 19.93 0L19.93 0Q22.39 0 23.90 1.32Q25.40 2.64 25.63 5.02L25.63 5.02L22.71 5.02Q22.60 3.64 21.94 3.02Q21.28 2.40 19.93 2.40L19.93 2.40Q18.47 2.40 17.74 3.45Q17.01 4.50 16.99 6.71L16.99 6.71L16.99 7.78Q16.99 10.09 17.69 11.15Q18.39 12.22 19.89 12.22L19.89 12.22Q21.25 12.22 21.92 11.60Q22.59 10.98 22.69 9.68L22.69 9.68ZM30.65 0.20L30.65 14.41L27.72 14.41L27.72 0.20L30.65 0.20Z"></path></g></svg></svg>